<mxfile host="app.diagrams.net" agent="Mozilla/5.0 (Windows NT 10.0; Win64; x64) AppleWebKit/537.36 (KHTML, like Gecko) Chrome/138.0.0.0 Safari/537.36 Edg/138.0.0.0" version="27.1.6">
  <diagram name="Page-1" id="aioW6CuGayQwaqkWKtIw">
    <mxGraphModel dx="3159" dy="1087" grid="0" gridSize="10" guides="1" tooltips="1" connect="1" arrows="1" fold="1" page="0" pageScale="1" pageWidth="850" pageHeight="1100" background="light-dark(#FFFFFF,#FFFFFF)" math="0" shadow="0">
      <root>
        <mxCell id="0" />
        <mxCell id="1" parent="0" />
        <mxCell id="SZBLTloK4QMBh8d6aYzM-2" value="" style="rounded=1;arcSize=10;dashed=1;fillColor=none;gradientColor=default;strokeWidth=2;dashPattern=12 12;strokeColor=none;" vertex="1" parent="1">
          <mxGeometry x="-30" y="280" width="200" height="200" as="geometry" />
        </mxCell>
        <mxCell id="SZBLTloK4QMBh8d6aYzM-3" value="" style="dashed=1;html=1;shape=mxgraph.aws3.permissions;fillColor=none;gradientColor=default;dashed=0;dashPattern=12 12;strokeColor=none;" vertex="1" parent="1">
          <mxGeometry x="-10" y="260" width="30" height="35" as="geometry" />
        </mxCell>
        <mxCell id="SZBLTloK4QMBh8d6aYzM-7" value="" style="rounded=1;whiteSpace=wrap;html=1;fontColor=#ffffff;fillColor=light-dark(#FFFFFF,#FFFFFF);strokeColor=light-dark(#006EAF,#00CC00);gradientColor=none;gradientDirection=east;dashed=1;strokeWidth=5;" vertex="1" parent="1">
          <mxGeometry x="-980" y="93" width="1600" height="926" as="geometry" />
        </mxCell>
        <mxCell id="SZBLTloK4QMBh8d6aYzM-9" value="" style="rounded=1;whiteSpace=wrap;html=1;fillColor=light-dark(#FFFFFF,#FFFFFF);strokeColor=light-dark(#000000,#000099);strokeWidth=7;perimeterSpacing=6;dashed=1;arcSize=19;" vertex="1" parent="1">
          <mxGeometry x="-875" y="173" width="1374" height="791" as="geometry" />
        </mxCell>
        <mxCell id="SZBLTloK4QMBh8d6aYzM-26" value="" style="edgeStyle=orthogonalEdgeStyle;rounded=0;orthogonalLoop=1;jettySize=auto;html=1;" edge="1" parent="1" source="SZBLTloK4QMBh8d6aYzM-10">
          <mxGeometry relative="1" as="geometry">
            <mxPoint x="-121.99999999999955" y="611" as="targetPoint" />
          </mxGeometry>
        </mxCell>
        <mxCell id="SZBLTloK4QMBh8d6aYzM-10" value="" style="rounded=1;whiteSpace=wrap;html=1;fillColor=none;dashed=1;strokeColor=light-dark(#000000,#99004D);strokeWidth=6;" vertex="1" parent="1">
          <mxGeometry x="-757" y="406" width="396" height="410" as="geometry" />
        </mxCell>
        <mxCell id="SZBLTloK4QMBh8d6aYzM-12" value="" style="outlineConnect=0;dashed=0;verticalLabelPosition=bottom;verticalAlign=top;align=center;html=1;shape=mxgraph.aws3.internet_gateway;fillColor=#F58534;gradientColor=none;" vertex="1" parent="1">
          <mxGeometry x="-555" y="364" width="69" height="72" as="geometry" />
        </mxCell>
        <mxCell id="SZBLTloK4QMBh8d6aYzM-13" value="" style="outlineConnect=0;dashed=0;verticalLabelPosition=bottom;verticalAlign=top;align=center;html=1;shape=mxgraph.aws3.vpc_nat_gateway;fillColor=#F58536;gradientColor=none;" vertex="1" parent="1">
          <mxGeometry x="-429" y="500" width="69" height="72" as="geometry" />
        </mxCell>
        <mxCell id="SZBLTloK4QMBh8d6aYzM-14" value="" style="rounded=1;whiteSpace=wrap;html=1;fillColor=none;dashed=1;strokeColor=light-dark(#D9A741,#835801);strokeWidth=6;" vertex="1" parent="1">
          <mxGeometry x="-18" y="396" width="370" height="410" as="geometry" />
        </mxCell>
        <mxCell id="SZBLTloK4QMBh8d6aYzM-17" style="edgeStyle=orthogonalEdgeStyle;rounded=0;orthogonalLoop=1;jettySize=auto;html=1;exitX=0.5;exitY=1;exitDx=0;exitDy=0;exitPerimeter=0;" edge="1" parent="1" source="SZBLTloK4QMBh8d6aYzM-16" target="SZBLTloK4QMBh8d6aYzM-10">
          <mxGeometry relative="1" as="geometry" />
        </mxCell>
        <mxCell id="SZBLTloK4QMBh8d6aYzM-16" value="" style="dashed=0;html=1;shape=mxgraph.aws3.permissions;fillColor=light-dark(#D9A741,#99004D);gradientColor=none;dashed=0;" vertex="1" parent="1">
          <mxGeometry x="-713" y="343" width="111" height="109" as="geometry" />
        </mxCell>
        <mxCell id="SZBLTloK4QMBh8d6aYzM-20" value="" style="endArrow=classic;html=1;rounded=0;" edge="1" parent="1">
          <mxGeometry width="50" height="50" relative="1" as="geometry">
            <mxPoint x="-205" y="600" as="sourcePoint" />
            <mxPoint x="-155" y="550" as="targetPoint" />
          </mxGeometry>
        </mxCell>
        <mxCell id="SZBLTloK4QMBh8d6aYzM-22" value="" style="outlineConnect=0;dashed=0;verticalLabelPosition=bottom;verticalAlign=top;align=center;html=1;shape=mxgraph.aws3.ec2;fillColor=#F58534;gradientColor=none;" vertex="1" parent="1">
          <mxGeometry x="-610" y="510" width="124" height="192" as="geometry" />
        </mxCell>
        <mxCell id="SZBLTloK4QMBh8d6aYzM-40" style="edgeStyle=orthogonalEdgeStyle;rounded=0;orthogonalLoop=1;jettySize=auto;html=1;" edge="1" parent="1" source="SZBLTloK4QMBh8d6aYzM-23" target="SZBLTloK4QMBh8d6aYzM-14">
          <mxGeometry relative="1" as="geometry" />
        </mxCell>
        <mxCell id="SZBLTloK4QMBh8d6aYzM-23" value="" style="outlineConnect=0;dashed=0;verticalLabelPosition=bottom;verticalAlign=top;align=center;html=1;shape=mxgraph.aws3.ec2;fillColor=#F58534;gradientColor=none;" vertex="1" parent="1">
          <mxGeometry x="107" y="518" width="147" height="194" as="geometry" />
        </mxCell>
        <mxCell id="SZBLTloK4QMBh8d6aYzM-24" value="" style="dashed=0;html=1;shape=mxgraph.aws3.permissions;fillColor=#D9A741;gradientColor=none;dashed=0;" vertex="1" parent="1">
          <mxGeometry x="51" y="335" width="116" height="106" as="geometry" />
        </mxCell>
        <mxCell id="SZBLTloK4QMBh8d6aYzM-27" value="" style="ellipse;shape=cloud;whiteSpace=wrap;html=1;fillColor=#60a917;fontColor=#ffffff;strokeColor=#2D7600;" vertex="1" parent="1">
          <mxGeometry x="-916" y="54" width="120" height="80" as="geometry" />
        </mxCell>
        <mxCell id="SZBLTloK4QMBh8d6aYzM-28" value="" style="ellipse;shape=cloud;whiteSpace=wrap;html=1;fillColor=light-dark(#000000,#000099);fontColor=#ffffff;strokeColor=#A50040;gradientColor=none;" vertex="1" parent="1">
          <mxGeometry x="-747" y="105" width="120" height="80" as="geometry" />
        </mxCell>
        <mxCell id="SZBLTloK4QMBh8d6aYzM-33" value="AWS" style="text;html=1;align=center;verticalAlign=middle;whiteSpace=wrap;rounded=0;fontColor=light-dark(#FFFFFF,#FBFFFB);fontStyle=1;spacing=4;fontSize=23;" vertex="1" parent="1">
          <mxGeometry x="-957" y="33" width="208" height="137" as="geometry" />
        </mxCell>
        <mxCell id="SZBLTloK4QMBh8d6aYzM-34" value="VPC&lt;span style=&quot;color: rgba(0, 0, 0, 0); font-family: monospace; font-size: 0px; font-weight: 400; text-align: start; text-wrap-mode: nowrap;&quot;&gt;%3CmxGraphModel%3E%3Croot%3E%3CmxCell%20id%3D%220%22%2F%3E%3CmxCell%20id%3D%221%22%20parent%3D%220%22%2F%3E%3CmxCell%20id%3D%222%22%20value%3D%22AWS%22%20style%3D%22text%3Bhtml%3D1%3Balign%3Dcenter%3BverticalAlign%3Dmiddle%3BwhiteSpace%3Dwrap%3Brounded%3D0%3BfontColor%3Dlight-dark(%23FFFFFF%2C%23FBFFFB)%3BfontStyle%3D1%3Bspacing%3D4%3BfontSize%3D23%3B%22%20vertex%3D%221%22%20parent%3D%221%22%3E%3CmxGeometry%20x%3D%22-960%22%20y%3D%2225.5%22%20width%3D%22208%22%20height%3D%22137%22%20as%3D%22geometry%22%2F%3E%3C%2FmxCell%3E%3C%2Froot%3E%3C%2FmxGraphModel%3E&lt;/span&gt;" style="text;html=1;align=center;verticalAlign=middle;whiteSpace=wrap;rounded=0;fontColor=light-dark(#FFFFFF,#FBFFFB);fontStyle=1;spacing=4;fontSize=23;" vertex="1" parent="1">
          <mxGeometry x="-784" y="76.5" width="208" height="137" as="geometry" />
        </mxCell>
        <mxCell id="SZBLTloK4QMBh8d6aYzM-35" value="Public&lt;div&gt;subnet&lt;span style=&quot;color: rgba(0, 0, 0, 0); font-family: monospace; font-size: 0px; font-weight: 400; text-align: start; text-wrap-mode: nowrap;&quot;&gt;%3CmxGraphModel%3E%3Croot%3E%3CmxCell%20id%3D%220%22%2F%3E%3CmxCell%20id%3D%221%22%20parent%3D%220%22%2F%3E%3CmxCell%20id%3D%222%22%20value%3D%22VPC%26lt%3Bspan%20style%3D%26quot%3Bcolor%3A%20rgba(0%2C%200%2C%200%2C%200)%3B%20font-family%3A%20monospace%3B%20font-size%3A%200px%3B%20font-weight%3A%20400%3B%20text-align%3A%20start%3B%20text-wrap-mode%3A%20nowrap%3B%26quot%3B%26gt%3B%253CmxGraphModel%253E%253Croot%253E%253CmxCell%2520id%253D%25220%2522%252F%253E%253CmxCell%2520id%253D%25221%2522%2520parent%253D%25220%2522%252F%253E%253CmxCell%2520id%253D%25222%2522%2520value%253D%2522AWS%2522%2520style%253D%2522text%253Bhtml%253D1%253Balign%253Dcenter%253BverticalAlign%253Dmiddle%253BwhiteSpace%253Dwrap%253Brounded%253D0%253BfontColor%253Dlight-dark(%2523FFFFFF%252C%2523FBFFFB)%253BfontStyle%253D1%253Bspacing%253D4%253BfontSize%253D23%253B%2522%2520vertex%253D%25221%2522%2520parent%253D%25221%2522%253E%253CmxGeometry%2520x%253D%2522-960%2522%2520y%253D%252225.5%2522%2520width%253D%2522208%2522%2520height%253D%2522137%2522%2520as%253D%2522geometry%2522%252F%253E%253C%252FmxCell%253E%253C%252Froot%253E%253C%252FmxGraphModel%253E%26lt%3B%2Fspan%26gt%3B%22%20style%3D%22text%3Bhtml%3D1%3Balign%3Dcenter%3BverticalAlign%3Dmiddle%3BwhiteSpace%3Dwrap%3Brounded%3D0%3BfontColor%3Dlight-dark(%23FFFFFF%2C%23FBFFFB)%3BfontStyle%3D1%3Bspacing%3D4%3BfontSize%3D23%3B%22%20vertex%3D%221%22%20parent%3D%221%22%3E%3CmxGeometry%20x%3D%22-784%22%20y%3D%2276.5%22%20width%3D%22208%22%20height%3D%22137%22%20as%3D%22geometry%22%2F%3E%3C%2FmxCell%3E%3C%2Froot%3E%3C%2FmxGraphModel%3E&lt;/span&gt;&lt;/div&gt;" style="text;html=1;align=center;verticalAlign=middle;whiteSpace=wrap;rounded=0;fontColor=light-dark(#FFFFFF,#FBFFFB);fontStyle=1;spacing=4;fontSize=23;" vertex="1" parent="1">
          <mxGeometry x="-761.5" y="347" width="208" height="137" as="geometry" />
        </mxCell>
        <mxCell id="SZBLTloK4QMBh8d6aYzM-37" value="" style="endArrow=classic;html=1;rounded=0;strokeColor=light-dark(#000000,#F60000);strokeWidth=5;" edge="1" parent="1" target="SZBLTloK4QMBh8d6aYzM-22">
          <mxGeometry width="50" height="50" relative="1" as="geometry">
            <mxPoint x="-1042" y="596" as="sourcePoint" />
            <mxPoint x="-828" y="454" as="targetPoint" />
          </mxGeometry>
        </mxCell>
        <mxCell id="SZBLTloK4QMBh8d6aYzM-36" value="Private&lt;div&gt;Subnet&lt;/div&gt;" style="text;html=1;align=center;verticalAlign=middle;whiteSpace=wrap;rounded=0;fontColor=light-dark(#FFFFFF,#FBFFFB);fontStyle=1;spacing=4;fontSize=23;" vertex="1" parent="1">
          <mxGeometry x="16" y="347" width="201" height="127" as="geometry" />
        </mxCell>
        <mxCell id="SZBLTloK4QMBh8d6aYzM-39" value="" style="endArrow=classic;html=1;rounded=0;strokeColor=light-dark(#000000,#FF0000);strokeWidth=5;" edge="1" parent="1">
          <mxGeometry width="50" height="50" relative="1" as="geometry">
            <mxPoint x="-489" y="598" as="sourcePoint" />
            <mxPoint x="110" y="606.0163568773235" as="targetPoint" />
          </mxGeometry>
        </mxCell>
        <mxCell id="SZBLTloK4QMBh8d6aYzM-41" value="INTERNET&amp;nbsp;&lt;div&gt;GATEWAY&lt;/div&gt;" style="text;html=1;align=center;verticalAlign=middle;whiteSpace=wrap;rounded=0;fontColor=light-dark(#000000,#000000);fontStyle=1;fontFamily=Comic Sans MS;fontSize=15;" vertex="1" parent="1">
          <mxGeometry x="-534" y="335" width="183" height="102" as="geometry" />
        </mxCell>
        <mxCell id="SZBLTloK4QMBh8d6aYzM-42" value="NAT&lt;span style=&quot;background-color: transparent;&quot;&gt;&amp;nbsp;&lt;/span&gt;&lt;div&gt;&lt;div&gt;GATEWAY&lt;/div&gt;&lt;/div&gt;" style="text;html=1;align=center;verticalAlign=middle;whiteSpace=wrap;rounded=0;fontColor=light-dark(#000000,#000000);fontStyle=1;fontFamily=Comic Sans MS;fontSize=16;" vertex="1" parent="1">
          <mxGeometry x="-411" y="480" width="183" height="102" as="geometry" />
        </mxCell>
        <mxCell id="SZBLTloK4QMBh8d6aYzM-44" value="&lt;font style=&quot;font-size: 26px;&quot;&gt;EC2&lt;/font&gt;" style="text;html=1;align=center;verticalAlign=middle;whiteSpace=wrap;rounded=0;fontColor=light-dark(#000000,#000000);fontStyle=1;fontFamily=Comic Sans MS;fontSize=16;" vertex="1" parent="1">
          <mxGeometry x="-649" y="572" width="183" height="102" as="geometry" />
        </mxCell>
        <mxCell id="SZBLTloK4QMBh8d6aYzM-45" value="&lt;font style=&quot;font-size: 26px;&quot;&gt;EC2&lt;/font&gt;" style="text;html=1;align=center;verticalAlign=middle;whiteSpace=wrap;rounded=0;fontColor=light-dark(#000000,#000000);fontStyle=1;fontFamily=Comic Sans MS;fontSize=16;" vertex="1" parent="1">
          <mxGeometry x="103" y="560" width="183" height="102" as="geometry" />
        </mxCell>
        <mxCell id="SZBLTloK4QMBh8d6aYzM-46" value="13.0.0.0/24" style="text;html=1;align=left;verticalAlign=middle;whiteSpace=wrap;rounded=0;fontColor=light-dark(#000000,#000000);fontStyle=1;fontSize=16;fontFamily=Comic Sans MS;" vertex="1" parent="1">
          <mxGeometry x="-627" y="127" width="121" height="30" as="geometry" />
        </mxCell>
        <mxCell id="SZBLTloK4QMBh8d6aYzM-47" value="13.0.1&lt;span style=&quot;background-color: transparent;&quot;&gt;.0/24&lt;/span&gt;" style="text;html=1;align=left;verticalAlign=middle;whiteSpace=wrap;rounded=0;fontColor=light-dark(#000000,#000000);fontStyle=1;fontSize=19;fontFamily=Comic Sans MS;" vertex="1" parent="1">
          <mxGeometry x="-653" y="776" width="121" height="30" as="geometry" />
        </mxCell>
        <mxCell id="SZBLTloK4QMBh8d6aYzM-48" value="13.0.2&lt;span style=&quot;background-color: transparent;&quot;&gt;.0/24&lt;/span&gt;" style="text;html=1;align=left;verticalAlign=middle;whiteSpace=wrap;rounded=0;fontColor=light-dark(#000000,#000000);fontStyle=1;fontSize=19;fontFamily=Comic Sans MS;" vertex="1" parent="1">
          <mxGeometry x="110" y="772" width="121" height="30" as="geometry" />
        </mxCell>
        <mxCell id="SZBLTloK4QMBh8d6aYzM-49" value="&lt;font&gt;&lt;b&gt;NAT Gateway&lt;/b&gt;&lt;/font&gt;" style="text;html=1;align=center;verticalAlign=middle;whiteSpace=wrap;rounded=0;fontColor=light-dark(#000000,#190033);fontSize=74;" vertex="1" parent="1">
          <mxGeometry x="-534" y="1061" width="561" height="48" as="geometry" />
        </mxCell>
        <mxCell id="SZBLTloK4QMBh8d6aYzM-50" value="" style="outlineConnect=0;dashed=0;verticalLabelPosition=bottom;verticalAlign=top;align=center;html=1;shape=mxgraph.aws3.route_table;fillColor=#F58536;gradientColor=none;" vertex="1" parent="1">
          <mxGeometry x="-442" y="615" width="75" height="69" as="geometry" />
        </mxCell>
        <mxCell id="SZBLTloK4QMBh8d6aYzM-51" value="" style="outlineConnect=0;dashed=0;verticalLabelPosition=bottom;verticalAlign=top;align=center;html=1;shape=mxgraph.aws3.route_table;fillColor=#F58536;gradientColor=none;" vertex="1" parent="1">
          <mxGeometry x="-18" y="615" width="75" height="69" as="geometry" />
        </mxCell>
        <mxCell id="SZBLTloK4QMBh8d6aYzM-55" value="" style="edgeStyle=orthogonalEdgeStyle;rounded=0;orthogonalLoop=1;jettySize=auto;html=1;" edge="1" parent="1">
          <mxGeometry relative="1" as="geometry">
            <mxPoint x="-156" y="491" as="sourcePoint" />
            <mxPoint x="-206.4285714285711" y="523.9999999999998" as="targetPoint" />
          </mxGeometry>
        </mxCell>
        <mxCell id="SZBLTloK4QMBh8d6aYzM-57" value="&lt;font style=&quot;font-size: 23px;&quot;&gt;&lt;b&gt;By Zed Donkeng&lt;/b&gt;&lt;/font&gt;" style="text;html=1;align=center;verticalAlign=middle;whiteSpace=wrap;rounded=0;fontColor=light-dark(#000000,#000000);" vertex="1" parent="1">
          <mxGeometry x="527" y="1045" width="249" height="64" as="geometry" />
        </mxCell>
        <mxCell id="SZBLTloK4QMBh8d6aYzM-60" value="" style="points=[];aspect=fixed;html=1;align=center;shadow=0;dashed=0;fillColor=#FF6A00;strokeColor=none;shape=mxgraph.alibaba_cloud.user;" vertex="1" parent="1">
          <mxGeometry x="-1144" y="553" width="96" height="96" as="geometry" />
        </mxCell>
      </root>
    </mxGraphModel>
  </diagram>
</mxfile>
